<svg xmlns="http://www.w3.org/2000/svg" viewBox="0 0 100 100" width="36" height="36" aria-hidden="true" focusable="false">
  <circle cx="50" cy="50" r="48" fill="#ffffff" stroke="#4a80c2" stroke-width="3"/>
  <path d="M 50,22 L 67,34 L 60,54 L 40,54 L 33,34 Z" fill="#4a80c2"/>
  <path d="M 50,22 L 50,2 L 72,6 L 85,22 L 67,34 Z" fill="none" stroke="#4a80c2" stroke-width="3" stroke-linejoin="round"/>
  <path d="M 50,22 L 50,2 L 28,6 L 15,22 L 33,34 Z" fill="none" stroke="#4a80c2" stroke-width="3" stroke-linejoin="round"/>
  <path d="M 33,34 L 15,22 L 4,40 L 10,60 L 40,54 Z" fill="none" stroke="#4a80c2" stroke-width="3" stroke-linejoin="round"/>
  <path d="M 67,34 L 85,22 L 96,40 L 90,60 L 60,54 Z" fill="none" stroke="#4a80c2" stroke-width="3" stroke-linejoin="round"/>
  <path d="M 40,54 L 10,60 L 25,85 L 50,95 L 75,85 L 90,60 L 60,54 Z" fill="none" stroke="#4a80c2" stroke-width="3" stroke-linejoin="round"/>
  <path d="M 15,22 L 4,40 L 10,60 Z" fill="#4a80c2"/>
  <path d="M 85,22 L 96,40 L 90,60 Z" fill="#4a80c2"/>
  <path d="M 40,54 L 25,85 L 50,95 L 75,85 L 60,54 Z" fill="#4a80c2"/>
</svg>